<?xml version="1.0" encoding="UTF-8"?> <svg xmlns:xlink="http://www.w3.org/1999/xlink" xmlns="http://www.w3.org/2000/svg" width="137" height="22" viewBox="0 0 137 22" fill="none"><path d="M0.579073 10.3594C1.06489 7.79434 3.29964 6.01855 6.40886 6.01855C10.0039 6.01855 12.8216 7.59703 12.8216 12.5298V21.7047H9.71241L9.32375 19.7316C8.25496 21.1127 6.79751 22.0006 4.65992 22.0006C2.03652 22.0006 -0.00390625 20.3235 -0.00390625 17.2652C-0.00390625 14.2069 2.71666 12.2338 6.50602 12.2338H9.03226V11.5432C9.03226 9.76743 7.76914 9.27416 6.3117 9.27416C5.2429 9.27416 4.17411 9.66878 3.68829 11.0499L0.579073 10.3594ZM5.53439 18.745C7.28333 18.745 9.03226 17.5612 9.03226 15.5881V15.2921H6.60319C4.95141 15.1934 3.97978 15.884 3.97978 17.2652C3.97978 17.9558 4.56276 18.745 5.53439 18.745Z" fill="#FFFCFA"></path><path d="M73.8408 10.3594C74.3266 7.79434 76.5614 6.01855 79.6706 6.01855C83.2656 6.01855 86.0833 7.59703 86.0833 12.5298V21.7047H82.9741L82.5855 19.7316C81.5167 21.1127 80.0592 22.0006 77.9216 22.0006C75.2982 22.0006 73.2578 20.3235 73.2578 17.2652C73.2578 14.2069 75.9784 12.2338 79.7677 12.2338H82.294V11.5432C82.294 9.76743 81.0309 9.27416 79.5734 9.27416C78.5046 9.27416 77.4358 9.66878 76.95 11.0499L73.8408 10.3594ZM78.7961 18.745C80.545 18.745 82.294 17.5612 82.294 15.5881V15.2921H79.7677C78.116 15.2921 77.1443 15.884 77.1443 17.2652C77.2415 17.9558 77.8245 18.745 78.7961 18.745Z" fill="#FFFCFA"></path><path d="M89.4844 21.8033V6.21586H93.2737V8.78089C94.3425 6.90645 96.0915 6.01855 97.7432 6.01855C98.4234 6.01855 99.0064 6.11721 99.5893 6.31452L98.9092 9.86609C98.4234 9.57012 97.9376 9.37282 97.3546 9.37282C95.1198 9.37282 93.2737 11.2473 93.2737 16.18V21.7047L89.4844 21.8033Z" fill="#FFFCFA"></path><path d="M107.649 6.01794C109.203 6.01794 110.661 6.80717 111.341 7.69507V0H115.13V21.8027H111.341V20.2242C110.855 21.0135 109.495 22.0987 107.649 22.0987C103.082 22.0987 100.75 18.8431 100.75 14.1076C100.75 9.3722 103.082 6.01794 107.649 6.01794ZM108.232 18.7444C110.175 18.7444 111.729 17.0673 111.729 14.009C111.729 10.9507 110.175 9.27354 108.232 9.27354C106.288 9.27354 104.734 10.9507 104.734 14.009C104.734 17.0673 106.288 18.7444 108.232 18.7444Z" fill="#FFFCFA"></path><path d="M128.739 8.48399L126.504 10.5557C125.824 9.56919 124.755 9.17457 123.978 9.17457C123.2 9.17457 122.52 9.66785 122.52 10.4571C122.52 11.1477 123.103 11.6409 123.978 11.9369C126.115 12.7261 129.516 13.4167 129.516 16.6723C129.516 19.5333 127.378 21.8024 124.075 21.8024C120.869 21.8024 118.731 19.5333 118.051 17.6589L121.063 15.9817C121.646 17.4616 122.617 18.5468 124.172 18.5468C125.338 18.5468 126.115 17.9548 126.115 16.8696C126.115 15.5871 124.172 15.2912 122.326 14.5019C120.674 13.8113 119.217 12.7261 119.217 10.3584C119.217 7.99072 121.16 5.82031 124.075 5.82031C126.018 5.91897 127.864 7.00417 128.739 8.48399Z" fill="#FFFCFA"></path><path d="M50.4241 6.21582L47.7035 16.9692L45.0801 6.21582H41.5822L39.056 16.9692L36.9184 10.7539L36.6269 11.4445L35.4609 15.4894L37.4042 21.8033H40.7077L43.3311 11.7405L45.9546 21.8033H49.3553L54.2134 6.21582H50.4241Z" fill="#FFFCFA"></path><path d="M68.5954 6.21582L65.8749 16.9692L63.2515 6.21582H59.7536L57.2274 16.9692L55.0898 10.7539L54.7983 11.4445L53.5352 15.4894L55.5756 21.8033H58.8791L61.5025 11.7405L64.1259 21.8033H67.4295L72.3848 6.21582H68.5954Z" fill="#FFFCFA"></path><path d="M36.0429 6.21582L31.1847 21.7046H27.8812L25.2578 11.7405L22.6344 21.8033H19.3308L14.4727 6.31447H18.262L20.9826 16.9692L23.606 6.31447H27.1039L29.7273 16.9692L32.4478 6.31447L36.0429 6.21582Z" fill="#FFFCFA"></path><path d="M134.472 16.7725C135.929 16.7725 136.998 17.8577 136.998 19.3375C136.998 20.8173 135.929 21.9025 134.472 21.9025C133.014 21.9025 131.945 20.8173 131.945 19.3375C131.945 17.8577 133.014 16.7725 134.472 16.7725Z" fill="#FFFCFA"></path></svg> 