<?xml version="1.0" encoding="UTF-8"?> <svg xmlns:xlink="http://www.w3.org/1999/xlink" xmlns="http://www.w3.org/2000/svg" fill="none" viewBox="0 0 139 26" width="172" height="32"><g clip-path="url(#a)" fill="#FFFCFA"><path d="m25.381 7.9574c-1.2494-2.9716-3.5575-5.3725-6.4761-6.7365-2.9186-1.364-6.2396-1.5939-9.318-0.64498-3.0784 0.94893-5.6947 3.009-7.341 5.7801-1.6462 2.7712-2.205 6.0558-1.5677 9.2161 0.63729 3.1603 2.4251 5.9708 5.0164 7.8858 2.5913 1.9152 5.801 2.7982 9.0062 2.4777 3.2051-0.3206 6.177-1.8217 8.3385-4.212 2.1615-2.3904 3.3585-5.4994 3.3585-8.7234 0.0025-1.7322-0.3434-3.4472-1.0169-5.0428zm-22.993 6.8849-0.02422-0.1613c-0.07305-0.4906-0.11378-0.9855-0.12196-1.4814l-0.00417-0.2554 0.25266 0.0339c3.4375 0.4587 6.7862 1.4342 9.9328 2.8934l0.127 0.0576v2.0922l-0.3165-0.1559c-3.0501-1.5034-6.318-2.516-9.6831-3.0005l-0.16246-0.0226zm1.4575 3.7981-0.09688-0.0201-0.04928-0.0861c-0.29544-0.5195-0.54877-1.0619-0.75758-1.6218l-0.13322-0.3562 0.37586 0.0644c3.2286 0.5511 6.35 1.6091 9.2488 3.135l0.1169 0.061v2.1586l-0.3274-0.1852c-2.6127-1.4774-5.4388-2.5399-8.3772-3.1496zm8.4269 5.4988c-2.3828-0.245-4.6234-1.2519-6.3897-2.8713l-0.71957-0.657 0.93089 0.2855c2.2156 0.6784 4.3377 1.6315 6.3171 2.837l0.8281 0.5049-0.9668-0.0991zm1.2858-9.6237-0.045 0.0217h-0.1712l-0.0451-0.0217-0.0059-0.0029c-3.3783-1.6133-6.9894-2.6838-10.7-3.1723l-0.22636-0.0301 0.03884-0.2249c0.45043-2.5998 1.8034-4.957 3.8205-6.6559 2.0171-1.6989 4.5687-2.6305 7.2049-2.6305s5.1878 0.93158 7.2049 2.6305c2.017 1.6989 3.37 4.0561 3.8204 6.6559l0.0389 0.2249-0.2264 0.0301c-3.7103 0.4883-7.3206 1.5584-10.698 3.171l-0.0097 0.0042zm7.4142 6.7524c-1.7663 1.6194-4.0069 2.6263-6.3897 2.8713l-0.9647 0.0991 0.8281-0.5049c1.9787-1.2055 4.1001-2.1588 6.315-2.8375l0.9309-0.2855-0.7196 0.6575zm2.9401-4.356c-0.2087 0.56-0.4621 1.1024-0.7576 1.6219l-0.0488 0.0861-0.0969 0.0201c-2.9386 0.6099-5.7648 1.6727-8.3776 3.1504l-0.3274 0.1852v-2.159l0.1174-0.0619c2.8987-1.5258 6.0201-2.5838 9.2487-3.135l0.3759-0.0644-0.1337 0.3566zm0.6999-3.7123c-0.0084 0.4958-0.0494 0.9906-0.1227 1.481l-0.0243 0.1613-0.1612 0.0234c-3.3654 0.4849-6.6333 1.498-9.6834 3.0017l-0.3166 0.156v-2.0939l0.1252-0.0589c3.1476-1.459 6.4971-2.434 9.9354-2.8921l0.2531-0.0339-0.0055 0.2554z" clip-rule="evenodd" fill-rule="evenodd" fill="#FFFCFA"></path><path d="m35.853 12.798c0 3.0598-0.0341 5.3007-0.1137 5.7671-0.1932 1.1147-1.2274 1.0124-1.2274 1.7404 0 0.3526 0.2841 0.5346 0.8069 0.5346 0.6137 0 1.8525-0.0569 5.0459-0.0569 2.3866 0 3.8186 0.0569 4.6255 0.0569 0.6819 0 0.966-0.2275 1.0001-0.819 0.0909-1.5015 0.2727-2.9348 0.2727-3.5604 0-0.5119-0.1364-0.8986-0.5-0.8986-0.3069 0-0.5228 0.2502-0.7842 1.001-0.5682 1.8086-1.1706 2.5594-3.9322 2.5594-1.932 0-2.2843-0.1934-2.2843-1.2627v-5.0618c0-2.1158 0.0114-4.2998 0.0568-4.7093 0.1364-1.5698 1.5684-1.3991 1.5684-2.2522 0-0.3185-0.1705-0.58012-0.7274-0.58012-0.5227 0-1.6819 0.05687-2.3297 0.05687s-1.4547-0.05687-2.0002-0.05687c-0.591 0-0.7501 0.273-0.7501 0.58012 0 0.7735 1.1137 0.64838 1.2388 2.1954 0.0341 0.44362 0.0341 3.4239 0.0341 4.7662z" fill="#FFFCFA"></path><path d="m54.76 16.337c0 1.7404-1.0796 2.9006-2.6252 2.9006-0.9774 0-1.682-0.546-1.682-1.4901 0-0.8076 0.5342-1.6039 1.7388-2.002 0.6478-0.2048 1.4092-0.2958 2.3525-0.2958 0.1478 0 0.2159 0.2048 0.2159 0.8873zm-3.7844-1.6608c-2.0116 0.6029-3.3071 1.7632-3.3071 3.549 0 1.82 1.5001 2.8324 3.4207 2.8324 1.2956 0 2.523-0.546 3.2617-1.2626 0.0909-0.091 0.1818-0.2275 0.2614-0.2275s0.1477 0.091 0.1932 0.1934c0.3409 0.8303 0.9774 1.1943 1.9434 1.1943 1.1364 0 2.0456-0.7962 2.0456-1.7745 0-0.2616-0.1136-0.3867-0.2046-0.3867-0.1704 0-0.2841 0.091-0.5568 0.091-0.5001 0-0.6592-0.4778-0.6592-0.9783 0-1.0351 0.125-2.7868 0.125-4.2656 0-2.9461-1.8979-4.5727-4.83-4.5727-2.7843 0-4.3981 1.4218-4.3981 2.73 0 1.001 0.7046 1.456 1.341 1.456 0.6251 0 0.8524-0.364 0.9888-0.9214 0.25-1.0465 0.8182-1.9793 2.0342-1.9793 1.5002 0 2.1139 1.183 2.1139 2.6504 0 0.7166-0.1137 0.8986-0.2387 0.9896-0.2727 0.1934-2.057 0.2617-3.5344 0.6825z" fill="#FFFCFA"></path><path d="m71.5 13.55c0-2.9234-1.3183-4.4704-3.7276-4.4704-2.2161 0-3.614 1.8541-3.8526 1.8541-0.1932 0-0.2387-0.5801-0.3523-1.1147-0.1137-0.48913-0.3182-0.637-0.6706-0.637-0.375 0-0.7387 0.25025-1.6819 0.65975-0.7387 0.31847-1.3297 0.40947-1.3297 0.90997 0 0.273 0.2046 0.4209 0.4432 0.5347 0.3978 0.1478 0.7728 0.3753 0.7728 0.9668v5.6762c0 0.5801-0.0909 1.0692-0.6478 1.5697-0.2159 0.182-0.6137 0.3754-0.6137 0.8076 0 0.2844 0.1591 0.5347 0.7047 0.5347 0.7387 0 1.2728-0.0569 1.9433-0.0569 0.5796 0 1.0797 0.0569 1.6934 0.0569s0.7955-0.2389 0.7955-0.5688c0-0.4436-0.375-0.5119-0.7046-0.8076-0.341-0.2958-0.4773-0.6143-0.4773-1.3991v-4.6979c0-1.1489 1.3524-2.366 2.5911-2.366 1.4433 0 2.307 1.0692 2.307 3.3101 0 2.2295-0.2841 4.3566-0.5 5.0278-0.0796 0.2161-0.2614 0.6028-0.2614 0.9668 0 0.2844 0.1478 0.5347 0.591 0.5347 0.5682 0 0.8864-0.0569 1.5797-0.0569 0.625 0 1.0228 0.0569 1.5342 0.0569 0.6137 0 0.8524-0.2275 0.8524-0.5688 0-0.4322-0.3523-0.5005-0.7728-0.7735-0.3523-0.2616-0.5342-0.7166-0.5342-1.1602 0-0.7508 0.3182-2.6959 0.3182-4.7889z" fill="#FFFCFA"></path><path d="m79.337 19.055c-1.7047 0-2.7162-1.547-2.7162-4.2202 0-2.8779 1.2047-4.1632 2.6366-4.1632 1.2388 0 2.614 1.0351 2.614 4.2997 0 2.9917-1.1025 4.0837-2.5344 4.0837zm4.6028 1.8996c1.1251 0 2.0456-0.7963 2.0456-1.7745 0-0.2616-0.125-0.3868-0.2159-0.3868-0.1705 0-0.2728 0.091-0.5569 0.091-0.5 0-0.6932-0.4777-0.6932-0.9782v-9.2365c0-2.6618 0.1022-2.9575 0.1022-3.913 0-0.47775-0.2386-0.69388-0.6477-0.69388-0.4433 0-1.0115 0.38675-2.0798 0.80762-0.7388 0.29576-1.3184 0.39813-1.3184 0.87588 0 0.273 0.2501 0.4095 0.4887 0.53463 0.3978 0.14787 0.7729 0.455 0.7729 1.001v2.366c0 0.70528-0.0682 0.85318-0.1818 0.85318-0.1933 0-0.9775-1.4219-3.08-1.4219-2.6252 0-4.8413 2.1499-4.8413 6.2904 0 3.822 2.1706 5.642 4.4777 5.642 1.5342 0 2.4775-0.6712 2.9889-1.1489 0.2614-0.2389 0.3978-0.4209 0.5001-0.4209 0.1137 0 0.1819 0.1479 0.2728 0.3071 0.4205 0.8873 1.0342 1.2058 1.9661 1.2058z" fill="#FFFCFA"></path><path d="m88.067 17.337c0 2.3205-0.1704 2.73-0.1704 3.2874 0 0.3185 0.1704 0.5119 0.4659 0.5119 0.3523 0 0.6251-0.4664 1.0228-0.91 0.2842-0.3185 0.5796-0.3868 0.9433-0.3868 0.4887 0 1.5002 1.1716 3.2503 1.1716 2.9548 0 5.2732-2.2067 5.2732-6.2903 0-3.4125-1.7047-5.642-4.364-5.642-2.4093 0-3.3981 1.911-3.6481 1.911-0.0909 0-0.1591-0.1479-0.1591-0.5802v-1.8541c0-2.1499 0.1819-3.1736 0.1819-3.7992 0-0.48913-0.2614-0.69388-0.6478-0.69388-0.4774 0-0.9092 0.37537-2.0684 0.80762-0.8296 0.3185-1.307 0.43225-1.307 0.87588 0 0.28437 0.2273 0.4095 0.4546 0.53462 0.4092 0.15925 0.7728 0.4095 0.7728 0.9555v10.101zm5.3301-6.3814c1.4547 0 2.5684 1.2854 2.5684 4.186 0 2.9575-1.2501 4.2884-2.6707 4.2884-1.3751 0-2.5798-1.001-2.5798-4.3907 0-2.821 1.341-4.0837 2.6821-4.0837z" fill="#FFFCFA"></path><path d="m105.57 10.569c0.932 0 1.875 0.6257 2.535 1.8997 0.488 0.9782 0.795 2.3546 0.795 3.549 0 2.3205-1.216 3.276-2.546 3.276-0.931 0-1.954-0.5119-2.591-1.7859-0.5-1.0238-0.648-2.3205-0.648-3.3101 0-2.4912 1.126-3.6287 2.455-3.6287zm-5.364 4.5614c0 3.4125 2.25 5.8809 5.762 5.8809 3.137 0 5.728-1.8883 5.728-5.6761 0-3.9927-2.773-6.2563-5.876-6.2563-3.25 0-5.614 2.4798-5.614 6.0515z" fill="#FFFCFA"></path><path d="m118.35 10.569c0.932 0 1.876 0.6257 2.535 1.8997 0.488 0.9782 0.795 2.3546 0.795 3.549 0 2.3205-1.216 3.276-2.545 3.276-0.932 0-1.955-0.5119-2.592-1.7859-0.5-1.0238-0.647-2.3205-0.647-3.3101 0-2.4912 1.125-3.6287 2.454-3.6287zm-5.364 4.5614c0 3.4125 2.25 5.8809 5.762 5.8809 3.137 0 5.728-1.8883 5.728-5.6761 0-3.9927-2.773-6.2563-5.876-6.2563-3.25 0-5.614 2.4798-5.614 6.0515z" fill="#FFFCFA"></path><path d="m129.59 17.292c0-0.8872 0.091-1.3309 0.659-1.3309 0.319 0 1.205 0.3299 2.103 1.2854 0.693 0.7622 1.159 1.5584 1.159 2.093 0 0.4095-0.409 0.5915-0.409 0.9555s0.295 0.5688 0.727 0.5688c0.387 0 1.285-0.0683 1.955-0.0683 0.614 0 1.523 0.0455 1.966 0.0455 0.455 0 0.534-0.3981 0.534-0.5687 0-0.455-0.557-0.7394-0.647-0.819-1.546-1.0352-2.069-3.9016-5.24-5.1074-0.079-0.0227-0.136-0.0682-0.136-0.1365 0-0.0569 0.034-0.091 0.136-0.1706 1.478-1.1489 3.046-2.5708 3.853-3.1168 0.591-0.3981 1.227-0.6597 1.227-1.1147 0-0.47775-0.42-0.55737-0.761-0.55737-0.523 0-1.239 0.06825-1.852 0.06825-0.626 0-1.171-0.05688-1.762-0.05688-0.318 0-0.659 0.1365-0.659 0.56875 0 0.45498 0.761 0.84178 0.761 1.2627 0 0.7621-3 3.2873-3.398 3.2873-0.091 0-0.182-0.0569-0.182-1.3195 0-5.9377 0.148-7.3482 0.148-8.3037 0-0.47775-0.239-0.69388-0.648-0.69388-0.443 0-0.988 0.38675-2.057 0.80762-0.738 0.29575-1.318 0.39813-1.318 0.87588 0 0.273 0.227 0.4095 0.466 0.53463 0.398 0.14787 0.761 0.4095 0.761 0.93275v10.715c0 0.5801-0.09 1.0693-0.647 1.5698-0.216 0.182-0.614 0.3754-0.614 0.8076 0 0.2844 0.159 0.5346 0.705 0.5346 0.727 0 1.261-0.0568 1.943-0.0568 0.557 0 1.307 0.0568 1.818 0.0568 0.614 0 0.796-0.273 0.796-0.5687 0-0.4209-0.421-0.5005-0.693-0.7394-0.5-0.4209-0.694-0.8417-0.694-2.2409z" fill="#FFFCFA"></path></g><defs><clipPath id="a"><rect transform="translate(.42188)" width="138" height="26" fill="#fff"></rect></clipPath></defs></svg> 