<?xml version="1.0" encoding="UTF-8"?> <svg xmlns:xlink="http://www.w3.org/1999/xlink" xmlns="http://www.w3.org/2000/svg" width="85" height="24" viewBox="0 0 85 24" fill="none"><path d="M26.0648 0H22.2188V24H26.0648V0Z" fill="#FFFCFA"></path><path d="M39.5259 16.3437C39.5259 20.0166 36.4327 20.3094 35.5125 20.3094C33.2136 20.3094 32.7953 18.161 32.7953 16.865V7.67969H28.9492V16.8458C28.9492 19.121 29.6646 20.9987 30.9184 22.2506C32.0261 23.3574 33.6857 23.9622 35.4837 23.9622C36.7587 23.9622 38.5644 23.5658 39.5259 22.6893V23.9997H43.372V7.67969H39.5259V16.3437Z" fill="#FFFCFA"></path><path d="M51.0666 1.91992H47.2205V7.67992H44.3359V11.5199H47.2205V23.9999H51.0666V11.5199H53.9511V7.67992H51.0666V1.91992Z" fill="#FFFCFA"></path><path d="M66.0659 19.1199C65.2284 19.8716 64.1226 20.2882 62.9092 20.2882C60.2343 20.2882 58.2699 18.327 58.2699 15.6342C58.2699 12.9414 60.1718 11.0626 62.9092 11.0626C64.1015 11.0626 65.2284 11.4591 66.087 12.2108L66.6707 12.7119L69.2639 10.1238L68.6149 9.53912C67.0889 8.16344 65.063 7.3916 62.9082 7.3916C58.1007 7.3916 54.6094 10.8553 54.6094 15.614C54.6094 20.3526 58.1843 23.9401 62.9082 23.9401C65.1034 23.9401 67.1505 23.1682 68.6572 21.7705L69.2841 21.1858L66.6505 18.5996L66.0659 19.1199Z" fill="#FFFCFA"></path><path d="M82.9883 9.10272C81.8807 7.9968 80.5826 7.392 78.7846 7.392C77.5096 7.392 76.0654 7.78848 75.1039 8.664V0H71.2578V24H75.1039V15.0096C75.1039 11.3366 77.7173 11.0448 78.6375 11.0448C80.9365 11.0448 80.873 13.1942 80.873 14.4883V24H84.7191V14.5085C84.7191 12.2333 84.2431 10.3555 82.9883 9.10272Z" fill="#FFFCFA"></path><path d="M62.7797 12.9004C64.3163 12.9004 65.5614 14.1417 65.5614 15.6767C65.5614 17.2098 64.3163 18.453 62.7797 18.453C61.2442 18.453 60 17.2098 60 15.6767C60.001 14.1426 61.2452 12.9004 62.7797 12.9004Z" fill="#FFFCFA"></path><path d="M16.8351 17.972C15.3726 19.4744 13.3861 20.2885 11.2957 20.2885C7.01122 20.2885 3.8959 16.9285 3.8959 12.3167C3.8959 7.68371 7.01122 4.32371 11.2957 4.32371C13.3659 4.32371 15.3303 5.13683 16.8149 6.61907L17.3995 7.20371L19.9706 4.63667L19.4062 4.05203C17.2745 1.86036 14.3899 0.671875 11.2957 0.671875C4.98338 0.671875 0.238281 5.68019 0.238281 12.3368C0.238281 18.9733 5.00453 23.9615 11.2957 23.9615C14.4111 23.9615 17.2956 22.7519 19.4273 20.5602L19.9917 19.9756L17.4418 17.3672L16.8351 17.972Z" fill="#FFFCFA"></path></svg> 