<svg xmlns="http://www.w3.org/2000/svg" xmlns:xlink="http://www.w3.org/1999/xlink" id="Layer_1" x="0px" y="0px" viewBox="0 0 84 84" style="enable-background:new 0 0 84 84;" xml:space="preserve"> <style type="text/css"> .st0{fill:#FFFFFF;} </style> <g> <g> <g> <path class="st0" d="M8.5,34.1l9.6,6.7v2L13,50l-0.2,0.1l-5.6-3.9l-2.3-6.9L8.5,34.1z M8.3,33.1l-0.4,0.6l-3.7,5.2L4,39.2 l0.1,0.4l2.3,6.9l0.1,0.2l0.2,0.1l5.6,3.9l0.3,0.2l0.4-0.1l0.2-0.1l0.2-0.1l0.1-0.2l5.2-7.2l0.1-0.2v-2.6l-0.3-0.2L9,33.5 L8.3,33.1L8.3,33.1z"></path> <path class="st0" d="M27.2,46v0.7h-1.8v-9.6h1.9v3.4c0.5-0.4,1.1-0.6,1.7-0.6c1.6,0,3,1.2,3,3.4c0,2.3-1.5,3.5-3,3.5 c-0.3,0-0.7-0.1-1-0.2C27.8,46.5,27.5,46.3,27.2,46 M30.1,43.4c0-1.2-0.7-1.7-1.4-1.7c-0.2,0-0.4,0-0.5,0.1 c-0.2,0.1-0.3,0.2-0.4,0.3c-0.1,0.1-0.2,0.3-0.3,0.4c-0.1,0.2-0.1,0.3-0.1,0.5v0.8c0,0.2,0,0.4,0.1,0.5c0.1,0.2,0.2,0.3,0.3,0.4 c0.1,0.1,0.3,0.2,0.4,0.3c0.2,0.1,0.3,0.1,0.5,0.1C29.5,45.2,30.1,44.6,30.1,43.4z"></path> <path class="st0" d="M39.2,37.1h-1.9v9.7h1.9V37.1z"></path> <path class="st0" d="M42.9,37.1H41v9.7h1.9V37.1z"></path> <path class="st0" d="M49.9,43.4c0-2.2,1.7-3.5,3.4-3.5c1.8,0,3.4,1.2,3.4,3.5c0,2.2-1.7,3.5-3.4,3.5 C51.6,46.9,49.9,45.7,49.9,43.4z M54.9,43.4c0-1.2-0.7-1.8-1.5-1.8c-0.8,0-1.5,0.6-1.5,1.8c0,1.2,0.7,1.8,1.5,1.8 C54.2,45.2,54.9,44.6,54.9,43.4z"></path> <path class="st0" d="M60.2,46v0.7h-1.8v-9.6h1.9v3.4c0.5-0.4,1.1-0.6,1.7-0.6c1.6,0,3,1.2,3,3.4c0,2.3-1.5,3.5-3,3.5 c-0.3,0-0.7-0.1-1-0.2C60.7,46.5,60.4,46.3,60.2,46 M63.1,43.4c0-1.2-0.7-1.7-1.4-1.7c-0.2,0-0.4,0-0.5,0.1 c-0.2,0.1-0.3,0.2-0.4,0.3c-0.1,0.1-0.2,0.3-0.3,0.4c-0.1,0.2-0.1,0.3-0.1,0.5v0.8c0,0.2,0,0.4,0.1,0.5c0.1,0.2,0.2,0.3,0.3,0.4 c0.1,0.1,0.3,0.2,0.4,0.3c0.2,0.1,0.3,0.1,0.5,0.1C62.4,45.2,63.1,44.6,63.1,43.4z"></path> <path class="st0" d="M66,43.4c0-2.2,1.7-3.5,3.4-3.5c1.8,0,3.4,1.2,3.4,3.5c0,2.2-1.7,3.5-3.4,3.5C67.7,46.9,66,45.7,66,43.4z M71,43.4c0-1.2-0.7-1.8-1.5-1.8c-0.8,0-1.5,0.6-1.5,1.8c0,1.2,0.7,1.8,1.5,1.8C70.3,45.2,71,44.6,71,43.4z"></path> <path class="st0" d="M77.9,46.8l-1.3-2.2l-1.3,2.2h-2.1l2.2-3.4l-2.1-3.3h2.1l1.2,2.1l1.3-2.1h2l-2.1,3.2l2.1,3.5H77.9z"></path> <path class="st0" d="M47.6,44.3c0,0.6,0.3,0.9,0.9,0.9H49v1.7h-0.5c-1.9,0-2.7-0.8-2.7-2.6v-2.6h-1v-1.6h1v-1.8h1.9v1.8H49v1.6 h-1.4V44.3z"></path> <path class="st0" d="M35.4,40.1h-1.9v6.6h1.9V40.1z"></path> <path class="st0" d="M35.4,37.1h-2v1.8h2V37.1z"></path> </g> </g> </g> </svg>