<svg xmlns="http://www.w3.org/2000/svg" xmlns:xlink="http://www.w3.org/1999/xlink" id="Layer_1" x="0px" y="0px" viewBox="0 0 84 84" style="enable-background:new 0 0 84 84;" xml:space="preserve"> <style type="text/css"> .st0{fill:#FFFFFF;} </style> <g> <g> <g> <path class="st0" d="M25.8,30.1h-7c-0.3,0-0.4,0-0.7,0c-3.5,0.2-5.4,1.9-5.4,5.7v17.6h4.3V36c0-1.4,0.9-2.3,2.2-2.3h6.5V30.1z"></path> <path class="st0" d="M4,30.1v3.7h5.5c2.1,0,3.7-1.7,3.7-3.7H4L4,30.1z"></path> <path class="st0" d="M31.1,35.2c-4.9,0-9,3.4-9,9.4s3.9,9.4,9,9.4s9-3.4,9-9.4S36.1,35.2,31.1,35.2z M31.1,50.8 c-2.8,0-4.6-2.1-4.6-6.2s1.8-6.2,4.6-6.2s4.6,2.1,4.6,6.2S33.8,50.8,31.1,50.8z"></path> <path class="st0" d="M71.7,49V35.8h-4V37c0,0.7,0,1.2,0,1.8l0,0c-1.1-2.3-3.2-3.6-5.9-3.6c-4.1,0-8.1,3.3-8.1,9.4s4,9.4,8.1,9.4 c2.7,0,4.9-1.3,5.9-3.6h0.1c0.4,2.2,1.7,3.1,3.9,3.1h1.8v-3.3h-0.7C72,50.2,71.7,49.8,71.7,49z M63,50.8c-3,0-5-2.4-5-6.2 c0-3.7,2-6.2,5-6.2c3,0,4.7,2.4,4.7,6.2S65.9,50.8,63,50.8z"></path> <path class="st0" d="M80,30.1h-4v23.3h4V30.1z"></path> <path class="st0" d="M46.4,48v-9h5.4v-3.3h-5.4v-4.2h-4.1v17c0,3.2,1.7,4.8,4.8,4.8h4.7v-3.3h-3.3C47.2,50.1,46.4,49.5,46.4,48 L46.4,48z"></path> </g> </g> </g> </svg>