<svg xmlns="http://www.w3.org/2000/svg" xmlns:xlink="http://www.w3.org/1999/xlink" id="Layer_1" x="0px" y="0px" viewBox="0 0 84 84" style="enable-background:new 0 0 84 84;" xml:space="preserve"> <style type="text/css"> .st0{fill:#FFFFFF;} .st1{fill:#FFFFFF;stroke:#832522;stroke-miterlimit:10;} .st2{fill:#FFFFFF;stroke:#FFFFFF;stroke-miterlimit:10;} </style> <g> <g> <path class="st0" d="M15,31.3h-3.5v21.9H7.4V31.3H4v-3.2h11V31.3z"></path> <path class="st0" d="M25.4,53.2h-4.2l-0.3-3.5h-2.8l-0.3,3.5h-3.4l3.1-25.1h4.6L25.4,53.2z M20.5,46.4l-1-12.7h-0.1l-1,12.7H20.5z "></path> <path class="st0" d="M35.7,47.8c0,4-1.9,5.9-5,5.9c-3.3,0-4.6-2-4.6-5.6c0-1.5,0.2-2.7,0.3-3.4l3,0.3c-0.1,0.8-0.2,1.9-0.2,2.8 c0,2.1,0.3,2.8,1.3,2.8c0.9,0,1.2-0.7,1.2-2.3v-0.7c0-1.9-0.4-3.7-2.6-6.3c-2.1-2.5-2.9-4.6-2.9-7.5v-0.4c0-3.3,1.2-5.7,4.9-5.7 c3.5,0,4.6,2.2,4.6,5.6c0,1.4-0.1,2.6-0.2,3.4l-3.1-0.3c0.1-0.7,0.2-1.6,0.2-2.7c0-2.2-0.3-2.9-1.2-2.9c-0.9,0-1.1,0.7-1.1,2.1 v0.5c0,1.5,0.5,3,2.1,5.1c2.2,2.8,3.5,5.6,3.5,8.8L35.7,47.8L35.7,47.8z"></path> </g> <g> <g> <path class="st0" d="M44.9,28.3h-2.1v-0.6h4.9v0.6h-2v5.6h-0.8V28.3z"></path> <path class="st0" d="M50.7,29.7c-0.8,0-1.3,0.6-1.3,1.4v2.8h-0.8v-6.2h0.8v2.5c0.3-0.7,0.8-1,1.5-1c1,0,1.6,0.6,1.6,1.7v3.1h-0.8 v-3C51.7,30.2,51.4,29.7,50.7,29.7z"></path> <path class="st0" d="M53.7,31.5c0-1.5,0.9-2.4,2.2-2.4c1.3,0,2,1,2,2.4l0,0v0h-3.3c0,1.2,0.6,1.8,1.5,1.8c0.6,0,1.1-0.4,1.2-1.1 l0.7,0.4c-0.3,0.7-1,1.2-2,1.2C54.6,33.9,53.7,33,53.7,31.5z M57,31.1c-0.1-1.1-0.4-1.5-1.1-1.5c-0.8,0-1.2,0.6-1.3,1.5H57z"></path> </g> <g> <path class="st0" d="M48.9,43.6h-0.8l-0.7-1.9h-2.8l-0.7,1.9h-0.8l2.4-6.2h1.1L48.9,43.6z M47.2,41.1L46.4,39 c-0.1-0.4-0.3-0.8-0.4-1.1c-0.1,0.4-0.3,0.7-0.4,1.1l-0.8,2.1H47.2z"></path> <path class="st0" d="M49.6,41.2c0-1.4,0.8-2.4,2-2.4c0.8,0,1.3,0.4,1.6,1.1v-2.5h0.8v6.2h-0.8v-1c-0.3,0.7-0.8,1.1-1.6,1.1 C50.4,43.6,49.6,42.7,49.6,41.2z M51.8,43.1c0.8,0,1.4-0.8,1.4-1.9c0-1.1-0.5-1.9-1.4-1.9c-0.8,0-1.4,0.7-1.4,1.9 C50.4,42.4,51,43.1,51.8,43.1z"></path> <path class="st0" d="M55.2,45c-0.2,0-0.4,0-0.5-0.1v-0.7c0.1,0.1,0.3,0.1,0.4,0.1c0.3,0,0.4-0.1,0.4-0.5V39h0.8v5 C56.3,44.6,55.9,45,55.2,45z M55.4,37.4h0.9v0.8h-0.9V37.4z"></path> <path class="st0" d="M57.7,42V39h0.8v2.9c0,0.7,0.3,1.2,1.1,1.2c0.8,0,1.3-0.6,1.3-1.4v-2.7h0.8v4.6h-0.8v-1 c-0.3,0.7-0.8,1-1.5,1C58.3,43.6,57.7,43.1,57.7,42z"></path> <path class="st0" d="M64.6,41.5c-1.1-0.2-1.6-0.6-1.6-1.4c0-0.8,0.6-1.4,1.8-1.4c0.9,0,1.6,0.5,1.7,1.1l-0.6,0.3 c-0.1-0.6-0.5-0.9-1.2-0.9c-0.6,0-1,0.2-1,0.7c0,0.5,0.3,0.6,1.1,0.8c1.2,0.3,1.6,0.6,1.6,1.4c0,0.9-0.7,1.5-1.8,1.5 c-0.9,0-1.6-0.5-1.8-1.1l0.6-0.4c0.1,0.6,0.6,1,1.2,1c0.7,0,1-0.2,1-0.7C65.7,41.9,65.4,41.7,64.6,41.5z"></path> <path class="st0" d="M68.2,39.4h-1.1l0.2-0.5h0.9v-1.2H69V39h1.6l-0.2,0.5H69v2.7c0,0.5,0.2,0.8,0.8,0.8c0.3,0,0.6-0.1,0.9-0.3 v0.7c-0.3,0.2-0.6,0.3-1.1,0.3c-0.9,0-1.4-0.5-1.4-1.3V39.4z"></path> <path class="st0" d="M71.4,41.2c0-1.5,0.9-2.4,2.2-2.4c1.3,0,2,1,2,2.4l0,0v0h-3.3c0,1.2,0.6,1.8,1.5,1.8c0.6,0,1.1-0.4,1.2-1.1 l0.7,0.4c-0.3,0.7-1,1.2-2,1.2C72.2,43.6,71.4,42.7,71.4,41.2z M74.7,40.8c-0.1-1.1-0.4-1.5-1.1-1.5c-0.8,0-1.2,0.6-1.3,1.5H74.7 z"></path> <path class="st0" d="M76.8,39h0.8l0,1.2c0.2-0.9,0.6-1.4,1.3-1.4c0.8,0,1.2,0.5,1.2,1.5l-0.7,0.4c0-1-0.2-1.4-0.6-1.4 c-0.6,0-1.1,0.7-1.1,2.2v2h-0.8V39z"></path> </g> <g> <path class="st0" d="M45.4,50.4c-1.4-0.4-2-0.8-2-1.8c0-1,0.8-1.6,2.3-1.6c1.3,0,2.1,0.7,2.2,1.6l-0.7,0.4 c-0.1-0.9-0.6-1.5-1.6-1.5c-0.9,0-1.4,0.4-1.4,0.9c0,0.6,0.4,0.9,1.4,1.2c1.4,0.4,2.2,0.7,2.2,1.9c0,1.1-0.8,1.8-2.3,1.8 c-1.4,0-2.3-0.7-2.3-1.8l0.7-0.5c0,1.1,0.6,1.7,1.7,1.7c0.9,0,1.4-0.4,1.4-1.1C46.9,51,46.5,50.8,45.4,50.4z"></path> <path class="st0" d="M48.6,51c0-1.5,0.9-2.4,2.3-2.4c0.8,0,1.5,0.4,1.8,1.2l-0.7,0.4c-0.2-0.7-0.5-1-1.1-1 c-0.8,0-1.3,0.7-1.3,1.9s0.5,1.9,1.5,1.9c0.6,0,1.1-0.4,1.2-1.3l0.7,0.4c-0.2,0.9-0.9,1.4-1.9,1.4C49.5,53.4,48.6,52.5,48.6,51z"></path> <path class="st0" d="M55.8,49.1c-0.8,0-1.3,0.6-1.3,1.4v2.8h-0.8v-6.2h0.8v2.5c0.3-0.7,0.8-1,1.5-1c1,0,1.6,0.6,1.6,1.7v3.1h-0.8 v-3C56.9,49.6,56.5,49.1,55.8,49.1z"></path> <path class="st0" d="M58.8,51c0-1.5,0.9-2.4,2.3-2.4s2.2,0.9,2.2,2.4c0,1.5-0.9,2.4-2.2,2.4S58.8,52.4,58.8,51z M61.1,52.9 c0.9,0,1.4-0.7,1.4-1.9s-0.5-1.9-1.4-1.9c-0.9,0-1.4,0.7-1.4,1.9S60.2,52.9,61.1,52.9z"></path> <path class="st0" d="M64.2,51c0-1.5,0.9-2.4,2.3-2.4c1.4,0,2.2,0.9,2.2,2.4c0,1.5-0.9,2.4-2.2,2.4C65.1,53.4,64.2,52.4,64.2,51z M66.5,52.9c0.9,0,1.4-0.7,1.4-1.9s-0.5-1.9-1.4-1.9c-0.9,0-1.4,0.7-1.4,1.9C65.1,52.2,65.6,52.9,66.5,52.9z"></path> <path class="st0" d="M69.9,47.1h0.8v6.2h-0.8V47.1z"></path> </g> </g> <path class="st1" d="M76.2,56.3"></path> <path class="st1" d="M7.3,56.3"></path> <line class="st2" x1="39.8" y1="28.1" x2="39.8" y2="52.9"></line> </g> </svg>