<svg xmlns="http://www.w3.org/2000/svg" xmlns:xlink="http://www.w3.org/1999/xlink" id="Layer_1" x="0px" y="0px" viewBox="0 0 84 84" style="enable-background:new 0 0 84 84;" xml:space="preserve"> <style type="text/css"> .st0{fill:#FFFFFF;} </style> <g> <path class="st0" d="M17.4,52.8L17.4,52.8c-0.2,0-0.3-0.1-0.3-0.3l0.2-27.1H5.9L4,58.5h6.1l1.6-27.1c0-0.1,0.1-0.2,0.3-0.2 s0.3,0.1,0.3,0.3l0.1,10.2l0.1,16.9h9.2l2.1-16.9L25,31.4c0-0.1,0.1-0.2,0.3-0.2s0.3,0.1,0.3,0.3L24,58.5h6.1l1.9-33H20.6 l-2.9,27.1C17.7,52.7,17.6,52.8,17.4,52.8z"></path> <path class="st0" d="M59.4,41.1c-1.3-0.9-4.3-1.9-4.6-3.6c-0.2-0.9,0-4.3,0-5c0-0.6,0.4-1.1,1.1-1.1c0.6,0,1.1,0.5,1.1,1.1l0.1,5.7 h5.8l-0.4-5.1c-0.3-5.5-2-8.2-6.7-8.2c-3.1,0-4.5,1-5.7,3.2c-0.9,1.6-1,2.6-1.4,7.4c-0.2,3,0.6,4.9,1.5,6.1 c1.1,1.5,2.5,2.5,3.7,3.2c1.2,0.6,3,1.4,3.4,3.2c0.1,0.6,0.1,2.8,0.1,2.8c0,1.3-0.4,2.3-1.8,2.3c-1.2,0-1.8-1.1-1.8-2.3l0.1-4.7 h-5.8l-0.4,5c-0.4,4.7,2.8,8.2,7.7,8.2c8,0,8.1-6.4,7.8-10.5C63.1,44.5,62.1,42.9,59.4,41.1z"></path> <path class="st0" d="M42.1,25.5L39.8,52c0,0.5-0.4,0.8-0.8,0.8c-0.4,0-0.8-0.3-0.7-0.9l1.5-26.5h-6.2l-1.5,25.7 c-0.3,5.2,1.5,7.9,6.5,7.9c5,0,6.7-2.5,7.2-7.9l2.2-25.7C48.3,25.5,42.1,25.5,42.1,25.5z"></path> <path class="st0" d="M73.9,58.5H80l-2.4-33h-6.1l0.9,13h-2.1l-0.8-13h-6.1l2,33h6.1l-0.8-13h2.2L73.9,58.5z"></path> </g> </svg>