<svg xmlns="http://www.w3.org/2000/svg" xmlns:xlink="http://www.w3.org/1999/xlink" id="Layer_1" x="0px" y="0px" viewBox="0 0 84 84" style="enable-background:new 0 0 84 84;" xml:space="preserve"> <style type="text/css"> .st0{fill:#FFFFFF;} </style> <g> <path class="st0" d="M4.4,51.5c0-0.1,0-0.1-0.1-0.1H4v-0.5h0.6c0.2,0,0.4,0.1,0.4,0.4v2.9c0,0.1,0,0.1,0.1,0.1h1.1 c0.1,0,0.1,0,0.1-0.1v-0.2h0.5v0.5c0,0.2-0.1,0.4-0.4,0.4H4.7c-0.2,0-0.4-0.1-0.4-0.4V51.5L4.4,51.5z"></path> <path class="st0" d="M7.3,52.6c0-0.1,0-0.1-0.1-0.1H6.9V52h0.5c0.2,0,0.4,0.1,0.4,0.4v1.9c0,0.1,0,0.1,0.1,0.1h0.2v0.5H7.6 c-0.2,0-0.4-0.1-0.4-0.4L7.3,52.6L7.3,52.6z M7.3,50.9h0.5v0.6H7.3V50.9z"></path> <path class="st0" d="M9.8,51.9c0.7,0,0.9,0.5,0.9,0.5h0c0,0,0-0.1,0-0.1c0-0.2,0.1-0.3,0.3-0.3h0.5v0.5h-0.2c-0.1,0-0.1,0-0.1,0.1 v3.3h-0.5v-1.3c0-0.1,0-0.2,0-0.2h0c0,0-0.2,0.5-0.9,0.5c-0.7,0-1.2-0.6-1.2-1.5C8.5,52.5,9,51.9,9.8,51.9L9.8,51.9z M10.7,53.4 c0-0.5-0.3-1-0.8-1c-0.4,0-0.8,0.4-0.8,1c0,0.6,0.3,1,0.8,1C10.3,54.4,10.6,54.1,10.7,53.4L10.7,53.4z"></path> <path class="st0" d="M12.1,52.6c0-0.1,0-0.1-0.1-0.1h-0.2V52h0.5c0.3,0,0.4,0.1,0.4,0.3v1.3c0,0.4,0.1,0.7,0.5,0.7 c0.6,0,0.9-0.5,0.9-1.1V52h0.5v2.2c0,0.1,0,0.1,0.1,0.1H15v0.5h-0.5c-0.2,0-0.4-0.1-0.4-0.3v-0.1c0-0.1,0-0.2,0-0.2h0 c-0.1,0.3-0.5,0.6-1,0.6c-0.6,0-0.9-0.3-0.9-1.1V52.6z"></path> <path class="st0" d="M16.6,51.9c0.8,0,1.5,0.6,1.5,1.5s-0.7,1.5-1.5,1.5c-0.8,0-1.5-0.6-1.5-1.5S15.8,51.9,16.6,51.9z M16.6,54.4 c0.5,0,1-0.4,1-1s-0.4-1-1-1s-1,0.4-1,1S16.1,54.4,16.6,54.4z"></path> <path class="st0" d="M18.7,52.6c0-0.1,0-0.1-0.1-0.1h-0.2V52h0.5c0.2,0,0.4,0.1,0.4,0.3v0.2c0,0.1,0,0.2,0,0.2h0 c0.1-0.4,0.5-0.7,0.9-0.7c0.1,0,0.1,0,0.1,0v0.5c0,0-0.1,0-0.2,0c-0.3,0-0.7,0.2-0.8,0.7c-0.1,0.2-0.1,0.3-0.1,0.5v1.1h-0.5 C18.7,54.8,18.7,52.6,18.7,52.6z"></path> <path class="st0" d="M26.5,50.8c0.5,0,1.5,0.2,1.5,0.8V52h-0.5v-0.2c0-0.3-0.6-0.5-0.9-0.5c-0.8,0-1.4,0.6-1.4,1.5 c0,0.9,0.6,1.5,1.4,1.5s1.2-0.5,1.2-0.5l0.3,0.4c0,0-0.6,0.6-1.5,0.6c-1.2,0-2-0.9-2-2S25.4,50.8,26.5,50.8L26.5,50.8z"></path> <path class="st0" d="M29.8,51.9c0.8,0,1.5,0.6,1.5,1.5s-0.7,1.5-1.5,1.5c-0.8,0-1.5-0.6-1.5-1.5S29,51.9,29.8,51.9z M29.8,54.4 c0.5,0,1-0.4,1-1s-0.4-1-1-1s-1,0.4-1,1S29.3,54.4,29.8,54.4z"></path> <path class="st0" d="M32,52.6c0-0.1,0-0.1-0.1-0.1h-0.2V52h0.5c0.2,0,0.4,0.1,0.4,0.3v0.1c0,0.1,0,0.2,0,0.2h0 c0.1-0.2,0.4-0.6,1-0.6c0.7,0,1,0.4,1,1.1v1.2c0,0.1,0,0.1,0.1,0.1h0.2v0.5h-0.5c-0.2,0-0.4-0.1-0.4-0.4v-1.3 c0-0.4-0.1-0.7-0.5-0.7c-0.4,0-0.8,0.3-0.9,0.7c0,0.1-0.1,0.2-0.1,0.4v1.3H32C32,54.8,32,52.6,32,52.6z"></path> <path class="st0" d="M35.2,52.5c0-0.1-0.1-0.1-0.2-0.1H35V52h0.3c0.2,0,0.3,0.1,0.4,0.3l0.6,1.6c0.1,0.2,0.1,0.4,0.1,0.4h0 c0,0,0-0.2,0.1-0.4l0.6-1.6c0.1-0.2,0.2-0.3,0.4-0.3h0.3v0.5h-0.1c-0.1,0-0.1,0-0.2,0.1l-0.8,2.2h-0.6L35.2,52.5L35.2,52.5z"></path> <path class="st0" d="M39.4,51.9c0.8,0,1.2,0.6,1.2,1.3c0,0.1,0,0.2,0,0.2h-2c0,0.6,0.5,0.9,1,0.9s0.8-0.3,0.8-0.3l0.2,0.4 c0,0-0.4,0.4-1.1,0.4c-0.9,0-1.5-0.6-1.5-1.5C38,52.5,38.6,51.9,39.4,51.9L39.4,51.9z M40,53c0-0.5-0.3-0.7-0.7-0.7 c-0.4,0-0.7,0.2-0.8,0.7H40z"></path> <path class="st0" d="M41.3,52.6c0-0.1,0-0.1-0.1-0.1h-0.2V52h0.5c0.2,0,0.4,0.1,0.4,0.3v0.1c0,0.1,0,0.2,0,0.2h0 c0.1-0.2,0.4-0.6,1-0.6c0.7,0,1,0.4,1,1.1v1.2c0,0.1,0,0.1,0.1,0.1h0.2v0.5h-0.5c-0.2,0-0.4-0.1-0.4-0.4v-1.3 c0-0.4-0.1-0.7-0.5-0.7c-0.4,0-0.8,0.3-0.9,0.7c0,0.1-0.1,0.2-0.1,0.4v1.3h-0.5L41.3,52.6L41.3,52.6z"></path> <path class="st0" d="M44.8,52.6c0-0.1,0-0.1-0.1-0.1h-0.2V52h0.5c0.2,0,0.4,0.1,0.4,0.4v1.9c0,0.1,0,0.1,0.1,0.1h0.2v0.5h-0.5 c-0.2,0-0.4-0.1-0.4-0.4L44.8,52.6L44.8,52.6z M44.8,50.9h0.5v0.6h-0.5V50.9z"></path> <path class="st0" d="M47.5,51.9c0.8,0,1.2,0.6,1.2,1.3c0,0.1,0,0.2,0,0.2h-2c0,0.6,0.5,0.9,1,0.9s0.8-0.3,0.8-0.3l0.2,0.4 c0,0-0.4,0.4-1.1,0.4c-0.9,0-1.5-0.6-1.5-1.5C46.1,52.5,46.7,51.9,47.5,51.9L47.5,51.9z M48.1,53c0-0.5-0.3-0.7-0.7-0.7 c-0.4,0-0.7,0.2-0.8,0.7H48.1z"></path> <path class="st0" d="M49.4,52.6c0-0.1,0-0.1-0.1-0.1H49V52h0.5c0.2,0,0.4,0.1,0.4,0.3v0.1c0,0.1,0,0.2,0,0.2h0 c0.1-0.2,0.4-0.6,1-0.6c0.7,0,1,0.4,1,1.1v1.2c0,0.1,0,0.1,0.1,0.1h0.2v0.5h-0.5c-0.2,0-0.4-0.1-0.4-0.4v-1.3 c0-0.4-0.1-0.7-0.5-0.7c-0.4,0-0.8,0.3-0.9,0.7c0,0.1-0.1,0.2-0.1,0.4v1.3h-0.5C49.4,54.8,49.4,52.6,49.4,52.6z"></path> <path class="st0" d="M54,51.9c0.3,0,1,0.1,1,0.6v0.3h-0.5v-0.2c0-0.2-0.3-0.3-0.5-0.3c-0.5,0-1,0.4-1,1c0,0.6,0.5,1,1,1 s0.9-0.4,0.9-0.4l0.2,0.4c0,0-0.4,0.5-1.1,0.5c-0.9,0-1.5-0.6-1.5-1.5S53.1,51.9,54,51.9L54,51.9z"></path> <path class="st0" d="M56.8,51.9c0.8,0,1.2,0.6,1.2,1.3c0,0.1,0,0.2,0,0.2h-2c0,0.6,0.5,0.9,1,0.9s0.8-0.3,0.8-0.3l0.2,0.4 c0,0-0.4,0.4-1.1,0.4c-0.9,0-1.5-0.6-1.5-1.5C55.4,52.5,56,51.9,56.8,51.9L56.8,51.9z M57.5,53c0-0.5-0.3-0.7-0.7-0.7 c-0.4,0-0.7,0.2-0.8,0.7H57.5z"></path> <path class="st0" d="M62.6,54.3h0.2c0.1,0,0.1,0,0.1-0.1l0.3-3.3h0.6l0.9,2.1c0.1,0.2,0.2,0.5,0.2,0.5h0c0,0,0.1-0.3,0.2-0.5 l0.9-2.1h0.6l0.3,3.3c0,0.1,0,0.1,0.1,0.1h0.2v0.5h-0.5c-0.2,0-0.3-0.1-0.4-0.4l-0.2-2.1c0-0.2,0-0.6,0-0.6h0c0,0-0.1,0.4-0.2,0.6 l-0.8,1.7h-0.5l-0.8-1.7c-0.1-0.2-0.2-0.6-0.2-0.6h0c0,0,0,0.3,0,0.6l-0.2,2.1c0,0.2-0.1,0.4-0.4,0.4h-0.5L62.6,54.3L62.6,54.3z"></path> <path class="st0" d="M68.9,51.9c0.8,0,1.5,0.6,1.5,1.5s-0.7,1.5-1.5,1.5s-1.5-0.6-1.5-1.5S68.1,51.9,68.9,51.9z M68.9,54.4 c0.5,0,1-0.4,1-1s-0.4-1-1-1c-0.5,0-1,0.4-1,1S68.4,54.4,68.9,54.4z"></path> <path class="st0" d="M71.1,52.6c0-0.1,0-0.1-0.1-0.1h-0.2V52h0.5c0.2,0,0.4,0.1,0.4,0.3v0.1c0,0.1,0,0.2,0,0.2h0 c0.1-0.2,0.4-0.6,1-0.6c0.7,0,1,0.4,1,1.1v1.2c0,0.1,0,0.1,0.1,0.1h0.2v0.5h-0.5c-0.2,0-0.4-0.1-0.4-0.4v-1.3 c0-0.4-0.1-0.7-0.5-0.7c-0.4,0-0.8,0.3-0.9,0.7c0,0.1-0.1,0.2-0.1,0.4v1.3h-0.5L71.1,52.6L71.1,52.6z"></path> <path class="st0" d="M75.6,51.9c0.8,0,1.2,0.6,1.2,1.3c0,0.1,0,0.2,0,0.2h-2c0,0.6,0.5,0.9,1,0.9s0.8-0.3,0.8-0.3l0.2,0.4 c0,0-0.4,0.4-1.1,0.4c-0.9,0-1.5-0.6-1.5-1.5C74.2,52.5,74.8,51.9,75.6,51.9L75.6,51.9z M76.3,53c0-0.5-0.3-0.7-0.7-0.7 c-0.4,0-0.7,0.2-0.8,0.7H76.3z"></path> <path class="st0" d="M77.7,55.5c0.2,0,0.4-0.2,0.5-0.4l0.1-0.3l-1-2.2c0-0.1-0.1-0.1-0.2-0.1h-0.1V52h0.3c0.2,0,0.3,0.1,0.4,0.3 l0.6,1.6c0.1,0.1,0.1,0.3,0.1,0.3h0c0,0,0-0.2,0.1-0.3l0.6-1.6c0.1-0.2,0.2-0.3,0.4-0.3H80v0.5h-0.1c-0.1,0-0.1,0-0.2,0.1l-1.1,2.7 c-0.2,0.4-0.5,0.7-0.9,0.7c-0.4,0-0.7-0.3-0.7-0.3l0.2-0.4C77.3,55.3,77.5,55.5,77.7,55.5L77.7,55.5z"></path> <path class="st0" d="M22.7,54.8h-0.6v-1.4h-1.2v-0.6h1.2v-1.4h0.6v1.4h1.2v0.6h-1.2V54.8z"></path> <path class="st0" d="M60.7,54.8h-0.6v-1.4h-1.2v-0.6h1.2v-1.4h0.6v1.4H62v0.6h-1.2V54.8z"></path> <path class="st0" d="M71.2,43.5c0.8,0,1.4,0.6,1.4,1.4s-0.6,1.4-1.4,1.4s-1.4-0.6-1.4-1.4S70.4,43.5,71.2,43.5L71.2,43.5L71.2,43.5 z M71.2,43.7c-0.6,0-1,0.5-1,1.1s0.5,1.1,1.1,1.1c0.6,0,1-0.5,1-1.1S71.8,43.7,71.2,43.7L71.2,43.7z M71,45.5h-0.3v-1.4 c0.1,0,0.3,0,0.5,0c0.3,0,0.4,0,0.5,0.1c0.1,0.1,0.1,0.2,0.1,0.3c0,0.2-0.1,0.3-0.3,0.3v0c0.1,0,0.2,0.2,0.2,0.3 c0,0.2,0.1,0.3,0.1,0.3h-0.3c0-0.1-0.1-0.2-0.1-0.3c0-0.1-0.1-0.2-0.3-0.2H71L71,45.5L71,45.5z M71,44.8h0.1c0.2,0,0.3-0.1,0.3-0.2 c0-0.1-0.1-0.2-0.3-0.2c-0.1,0-0.1,0-0.2,0C71,44.4,71,44.8,71,44.8z"></path> <path class="st0" d="M63.6,30v-1.7h-1.8c-2.1,0-3.7,0.3-4.7,1.6v-1.6h-1.8c-2.9,0-5.2,0.6-5.7,3.6v0c-1.7-2.3-4.4-3.8-7.5-3.8 c-5.1,0-9.2,4.1-9.2,9.2c0,0,0,0,0,0c0,0.3,0,0.5,0,0.8c0,0.3,0.1,0.7,0.1,1c-0.4,0-1.2,0-1.2,0c-0.2,0-0.4-0.1-0.4-0.3 c0-0.1,0-0.1,0-0.1V28.3H21.1c-2.1,0-3.7,0.1-5.2,1.4c-1.3,1.2-2,2.9-2,5.8v10.6h7.6V41h2.6c0.3,3.1,2.7,5.2,5.8,5.2h5.5v-2.6 c1.7,1.8,4,2.9,6.7,2.9c3.3,0,6.2-1.7,7.8-4.3c0.3,0.8,0.7,1.5,1.2,2.1c0.9,1,2.5,2.2,5.4,2.2c0.9,0,2.2-0.3,3.3-1 c1.1,0.7,2.3,1,3.3,1c2.5,0,4.1-0.9,5-1.7c0.8-0.9,1-1.2,1.5-2.1c0.4-1.1,0.5-1.7,0.5-2.6l0-11.7h-1.7C66.2,28.3,64.6,28.6,63.6,30 L63.6,30z M24.1,39.7h-4v5.2h-4.7v-7.3c0,0,3.6,0.7,8.7,0.9V39.7L24.1,39.7z M24.1,34.3h-2.8c-1.1,0-1.2,0.1-1.2,1.5h4v1.6 c-4-0.3-7.7-1.2-8.7-1.4v-0.3c0-4.8,2-5.9,5.8-5.9h2.9V34.3L24.1,34.3z M25.4,29.7h4.7v7.8c-0.9,0-1.7,0-2.6,0 c-0.7,0-1.4,0-2.1-0.1C25.4,37.4,25.4,29.7,25.4,29.7z M34.1,44.8h-4.1c-2.6,0-4.5-1.9-4.5-4.6v-1.8c0.7,0,1.4,0,2.2,0 c0.9,0,1.8-0.1,2.5-0.1v0.5c0,1.2,0.3,1.7,1.8,1.7h2.2V44.8L34.1,44.8z M42.1,29.5c3.4,0,6.3,2.2,7.4,5.3c-1.7,0.2-3.3,0.5-5,0.8 c-0.5-0.8-1.4-1.2-2.4-1.2c-1.4,0-2.5,0.9-2.9,2.2c-1.7,0.3-3.3,0.5-4.9,0.7C34.4,32.9,37.8,29.5,42.1,29.5L42.1,29.5z M43.8,37.3 c0,0.9-0.7,1.6-1.6,1.6c-0.9,0-1.6-0.7-1.6-1.6c0-0.1,0-0.3,0-0.4c0.1-0.3,0.2-0.5,0.4-0.7c0.3-0.3,0.7-0.5,1.2-0.5 c0.3,0,0.5,0.1,0.7,0.2c0.3,0.1,0.5,0.4,0.7,0.6C43.7,36.7,43.8,37,43.8,37.3L43.8,37.3z M49.8,38.4c-0.6,3.8-3.8,6.7-7.7,6.7 s-7.4-3.1-7.8-7.1c1.8-0.2,3.1-0.5,4.8-0.8c0,0,0,0.1,0,0.1c0,1.7,1.3,3,3,3c1.7,0,3-1.3,3-3c0-0.4-0.1-0.7-0.2-1 c1.4-0.2,4.8-0.4,4.8-0.4c0.1,0.5,0.1,0.9,0.1,1.4C49.9,37.6,49.9,38,49.8,38.4L49.8,38.4z M57.3,33.2c0-3,2.3-3.5,3.8-3.5h1.3 l0,4.8c-1.3-0.1-2.8-0.2-4.4-0.2c-0.2,0-0.5,0-0.8,0C57.3,34.2,57.3,33.2,57.3,33.2z M50.9,34.5L50.9,34.5L50.9,34.5v-0.2l0,0v-0.8 c0,0,0-0.3,0-0.3c0-3,2.1-3.5,3.7-3.5h1.3l0,4.5C54.3,34.3,52.6,34.4,50.9,34.5L50.9,34.5L50.9,34.5C50.9,34.6,50.9,34.5,50.9,34.5 z M68.8,40c0,2.2-1.4,5.1-5.6,5.1c-1,0-2.3-0.4-3.3-1.4c-1,1-2.3,1.4-3.3,1.4c-4.2,0-5.6-2.8-5.6-5v-4.3l0,0c1.4-0.1,3.4-0.1,5-0.1 l0,3.6c0,1.1,0,1.5,0.7,1.5s0.6-0.4,0.6-1.5l0-3.6c1.6,0,3.5,0.1,5.2,0.3v3.3c0,1.1,0,1.5,0.7,1.5c0.7,0,0.6-0.4,0.6-1.5v-3.2 c2.4,0.3,4.5,0.5,4.9,0.6C68.8,36.7,68.8,40,68.8,40z M68.8,35.2c-0.4-0.1-2.2-0.3-4.9-0.6v-1.3c0-3,2.3-3.5,3.8-3.5h1.1 C68.8,29.7,68.8,35.2,68.8,35.2z"></path> <path class="st0" d="M50.9,34.5L50.9,34.5L50.9,34.5C50.9,34.6,50.9,34.6,50.9,34.5z"></path> </g> </svg>