<svg xmlns="http://www.w3.org/2000/svg" xmlns:xlink="http://www.w3.org/1999/xlink" id="Layer_1" x="0px" y="0px" viewBox="0 0 84 84" style="enable-background:new 0 0 84 84;" xml:space="preserve"> <style type="text/css"> .st0{fill:#FFFFFF;} </style> <g> <g> <path class="st0" d="M15.5,25.3h7.4v-0.5c-1.2-0.1-1.7-1.3-1.7-2.9V10.1h2c2.1,0,2.8,0.7,3.3,2.7h0.5V8.4H11.4v4.3h0.5 c0.6-1.9,1.2-2.7,3.3-2.7h2v11.8c0,1.5-0.4,2.8-1.7,2.9V25.3z"></path> <path class="st0" d="M62.1,13c0,5,8.3,4.2,8.3,8.6c0,1.5-1.4,2.4-3.2,2.4c-2.4,0-4.2-1.1-4.7-2.9H62v3.5c1.8,0.5,3.7,0.9,5.8,0.9 c4.3,0,6.5-2.1,6.5-5c0-5.4-8.3-4.8-8.3-8.7c0-1.4,0.9-2.2,2.7-2.2c1.9,0,3.7,0.9,4.2,2.7h0.5V8.7c-1.5-0.4-3-0.6-4.7-0.6 C64.4,8.2,62.1,10,62.1,13"></path> <path class="st0" d="M35.6,8.2c-5.7,0-8.1,3.7-8.1,8.6s2.4,8.6,8.1,8.6s8.1-3.7,8.1-8.6C43.6,12,41.2,8.2,35.6,8.2 M35.6,24.2 c-2.7,0-3.8-2.9-3.8-7.3c0-4.5,1.2-7.3,3.8-7.3c2.7,0,3.8,2.9,3.8,7.3S38.3,24.2,35.6,24.2"></path> <path class="st0" d="M45.7,19.9c0,3.2,2.2,5.6,6.8,5.6c4.7,0,7.1-2.4,7.1-5.6v-8.6c0-1.4,0.3-2.2,1.4-2.3V8.4h-5.5v0.5 c1.2,0.1,1.4,0.9,1.4,2.3v8.6c0,2.6-1.3,4.2-3.7,4.2c-2.4,0-3.5-1.6-3.5-4.2v-8.6c0-1.4,0.4-2.2,1.5-2.3V8.4h-7.1v0.5 c1.2,0.1,1.5,0.9,1.5,2.3L45.7,19.9L45.7,19.9z"></path> </g> <g> <path class="st0" d="M8.5,68.5c0,2.4-0.7,3.6-2.2,4v0.7c3.7-0.2,6.3-2.8,6.3-6.2V54.4c0-1.5,0.4-2.4,1.7-2.4v-0.5H6.8V52 c1.2,0.1,1.7,0.9,1.7,2.4V68.5z"></path> <path class="st0" d="M64.2,65.2l-0.6-1.8c-0.5-1.3-1.4-2.2-2.7-2.7v-0.1c2.5-0.9,4.1-2.2,4.1-4.5c0-3-2.3-4.6-6.9-4.6h-7.8V52 c1.2,0.1,1.5,1,1.5,2.4v11.1c0,1.4-0.4,2.3-1.5,2.4v0.5h7.1v-0.5c-1.2-0.1-1.5-1-1.5-2.4v-4.3h0.9c1.3,0,1.8,0.4,2.4,2 c0.7,1.7,2.2,5.2,2.2,5.2h5.2v-0.5C65.3,67.8,64.7,66.7,64.2,65.2 M57.3,59.7h-1.6V53h1.6c2.4,0,3.5,1.3,3.5,3.5 S59.6,59.7,57.3,59.7"></path> <path class="st0" d="M67.2,56.1c0,5,8.3,4.2,8.3,8.6c0,1.5-1.4,2.4-3.2,2.4c-2.4,0-4.2-1.1-4.7-2.9H67v3.5 c1.8,0.5,3.7,0.9,5.8,0.9c4.3,0,6.5-2.1,6.5-5c0-5.4-8.3-4.8-8.3-8.7c0-1.4,0.9-2.2,2.7-2.2c1.9,0,3.7,0.9,4.2,2.7h0.5v-3.6 c-1.5-0.4-3-0.6-4.7-0.6C69.4,51.3,67.2,53.1,67.2,56.1"></path> <path class="st0" d="M23.4,51.3c-5.7,0-8.1,3.7-8.1,8.6c0,4.9,2.4,8.6,8.1,8.6s8.1-3.7,8.1-8.6C31.5,55.1,29.1,51.3,23.4,51.3 M23.4,67.3c-2.7,0-3.8-2.9-3.8-7.3c0-4.5,1.2-7.3,3.8-7.3s3.8,2.9,3.8,7.3C27.3,64.4,26.1,67.3,23.4,67.3"></path> <path class="st0" d="M33.6,63c0,3.2,2.2,5.6,6.8,5.6c4.7,0,7.1-2.4,7.1-5.6v-8.6c0-1.4,0.3-2.2,1.4-2.3v-0.5h-5.5V52 c1.2,0.1,1.4,0.9,1.4,2.3V63c0,2.6-1.3,4.3-3.7,4.3c-2.4,0-3.5-1.7-3.5-4.3v-8.6c0-1.4,0.4-2.2,1.5-2.3v-0.5h-7.1V52 c1.2,0.1,1.5,0.9,1.5,2.3L33.6,63L33.6,63z"></path> </g> <g> <path class="st0" d="M38.8,41c0.1,0.6,0.2,0,0.2,0.1c0,0.9-1.7,3.7-4.2,3.7c-1.2,0-2.3-1-2.3-2.9c0-2.6,2.2-9.1,4.2-13.7 c0.2-0.5,0.6-1.4,1.3-1.2c0.4,0.1,0.5,0.5,0.5,1c0,2.9-2.6,4.7-3.7,9.6c-0.2,1.1-0.3,2.4-0.3,2.9c0,1.8,0.6,2.7,1.6,2.7 c0.8,0,2.3-0.9,2.5-2.3L38.8,41L38.8,41z"></path> <path class="st0" d="M45.1,42.8c-1.3,1.3-2.8,1.9-4,1.9c-1.4,0-2.4-1.2-2.4-2.8c0-4.3,3.7-7.8,5.8-7.6c0.6,0.1,1,0.4,1,1.2 c0,0.9-0.5,1.9-1.3,2.9c-1,1.1-1.8,1.7-3.6,2.7c0.1,1.4,1.1,2.4,2.4,2.3c0.6-0.1,1-0.1,2.1-0.8C45.6,42.1,45.9,42,45.1,42.8z M43.5,36.8c0.1-1.2-0.5-1.2-1.2-0.5c-1.1,1.1-1.8,2.5-1.9,4.3C43.2,39.2,43.5,37.2,43.5,36.8z"></path> <path class="st0" d="M51,38.4c0.4-0.4,0.6-1.3,0.6-1.8c-0.1-0.8-0.6-0.9-1.3-0.8c-1.2,0.1-2.4,1.6-2.4,2.6c0,0.6,0.5,0.9,2,1.2 c1.5,0.3,2.6,0.4,2.7,1.4c0.1,2.2-3.4,4-5.3,3.5c-1.4-0.4-1.7-1.8-1.6-2.2c0-0.1,0.1-0.1,0.1,0c0.4,0.3,1.4,0.8,3.2,0.8 c1.2,0,2.7-0.6,2.9-1.5c0.1-0.8-1.2-0.6-2.5-0.7c-1.4-0.1-2.4-0.4-2.9-0.9c-0.3-0.3-0.4-0.6-0.4-1c0-1.9,3.2-4.5,5.5-4.5 c0.9,0,1.4,0.6,1.4,1.5c0,1.2-0.8,2-1.9,2.6C51,38.6,50.8,38.7,51,38.4z"></path> </g> </g> </svg>