<svg xmlns="http://www.w3.org/2000/svg" xmlns:xlink="http://www.w3.org/1999/xlink" id="Layer_1" x="0px" y="0px" viewBox="0 0 84 84" style="enable-background:new 0 0 84 84;" xml:space="preserve"> <style type="text/css"> .st0{fill:#FFFFFF;} </style> <g> <g> <path class="st0" d="M50,37.3c1,0.2,2.3,0.9,2.4,2l-11.9,0.2c-6,1.4-5.7,8.8-8.1,12c-0.5,0.8-1.3,1.4-2.1,1.8 c-0.4,0-0.2-0.4-0.2-0.4c1.4-3.8,2.7-8.7,4.1-11.4c1.5-2.5,4.2-4.1,7.1-4.2L50,37.3z"></path> <path class="st0" d="M60.7,42c0.4,1,0.6,2,0.5,3.1h-0.2c-0.6-1.3-2.1-3.3-3.2-3.4c-1.1-0.2-4.2-0.1-6.3-0.1c0,0,1.2-1.5,1.5-1.8 C55.9,39.8,59.3,39.1,60.7,42"></path> <path class="st0" d="M60.5,45.5c0.1,0.2-0.2,0.4-0.3,0.4c-3.7,0.2-8,0.7-10,5.4c0,0-2.3,7-3.3,10.1c-0.7,2.3-2.3,4.2-4.4,5.3 c-0.2,0.1-0.4-0.1-0.4-0.2c0.6-0.7,1.1-1.6,1.4-2.4c0.6-1.3,4.7-14,4.7-14c1.7-4.2,5.8-6.2,10.2-6C59.3,44.2,60.1,44.7,60.5,45.5"></path> <path class="st0" d="M45,51.4c0,0-1,1.8-1.2,2.5c-1.5,3.9-2.2,6.9-3.6,10.9c-0.7,2.3-2.4,4.1-4.7,5c-0.3,0-0.4-0.1-0.4-0.3 c1.2-2.1,2.2-4.4,2.9-6.8c0.8-2.9,1.8-5.8,2.9-8.6C41.8,52.2,43.6,51.1,45,51.4"></path> <path class="st0" d="M39,52.2c0,0-1,2-1.2,2.6c-1.6,4.2-2.4,7.4-3.9,11.6c-0.7,2.4-2.5,4.3-4.8,5.3c-0.3,0-0.4-0.1-0.4-0.3 c1.3-2.3,2.3-4.7,3-7.2c0.9-3.1,1.9-6.2,3.1-9.2C35.7,53.1,37.6,51.9,39,52.2"></path> <path class="st0" d="M32.2,55.8l-1.6,1.1l0.6,1.9l-1.5-1.2L28,58.7l0.7-1.8l-1.6-1.2l1.9,0.1l0.6-1.8l0.5,1.9L32.2,55.8z"></path> <path class="st0" d="M30.5,60.9L28.9,62l0.6,1.9L28,62.7l-1.6,1.1L27,62l-1.5-1.2l1.9,0.1l0.6-1.8l0.5,1.9L30.5,60.9z"></path> <path class="st0" d="M28.8,65.9L27.2,67l0.6,1.9l-1.5-1.2l-1.6,1.1l0.7-1.8l-1.5-1.2l1.9,0.1l0.6-1.8l0.5,1.9L28.8,65.9z"></path> <path class="st0" d="M27.2,71.2l-1.6,1.1l0.6,1.9l-1.5-1.2L23,74l0.7-1.8L22.1,71l1.9,0.1l0.6-1.8l0.5,1.9L27.2,71.2z"></path> <g> <path class="st0" d="M50,42h-4.6c-0.7,0.1-1.4,0.4-1.9,1c-0.3,0.3-0.5,0.7-0.5,1.2c0,0,0,0.1,0.2,0c0.3-0.2,0.6-0.3,0.9-0.3h4 c0.6,0,1.1-0.3,1.5-0.7c0.6-0.6,0.7-0.8,0.7-0.8S50.3,42,50,42"></path> <path class="st0" d="M35.3,10.8c0-0.1,0-0.4-0.1-0.4h-1.5c-0.6,0-0.6,0.1-0.7,0.6c0,0.1,0,0.2-0.2,0.2c-0.1,0-0.1-0.1-0.1-0.1 l0.1-0.9c0-0.1,0-0.3,0.2-0.3c0.7,0,1.4,0,2.5,0c1.6,0,2.4,0,2.6,0c0.2,0,0.2,0.1,0.3,0.3l0,0.7c0,0.1,0,0.2-0.1,0.2 c-0.3,0,0.2-0.7-0.8-0.7h-1.3c-0.4,0-0.4,0-0.4,0.4v4.5c0,0.7,0.7,0.5,0.7,0.7c0,0,0,0.1-0.1,0.1c-0.2,0-0.5,0-0.7,0 c-0.4,0-0.8,0-1.2,0c-0.1,0-0.1,0-0.1-0.1c0-0.2,0.7-0.1,0.7-0.7L35.3,10.8z"></path> <path class="st0" d="M39.9,10.7c0-0.7-0.8-0.5-0.8-0.7c0-0.1,0.1-0.1,0.1-0.1c0.3,0,0.7,0,1,0c0.3,0,0.6,0,0.8,0 c0.2,0,0.2,0.1,0.2,0.1c0,0.2-0.6,0-0.6,0.7v1.9c0,0.1,0,0.2,0.1,0.2H44c0.1,0,0.1-0.2,0.1-0.3v-1.8c0-0.6-0.7-0.5-0.7-0.7 c0-0.1,0-0.1,0.2-0.1c0.3,0,0.8,0,0.9,0c0.3,0,0.5,0,0.6,0c0.2,0,0.2,0.1,0.2,0.1c0,0.2-0.6,0-0.6,0.6v4.7c0,0.7,0.8,0.5,0.8,0.7 c0,0,0,0.1-0.1,0.1c-0.2,0-0.5,0-0.8,0c-0.6,0-0.8,0-1,0c-0.1,0-0.2,0-0.2-0.1c0-0.2,0.6-0.1,0.6-0.7v-2.1c0-0.1,0-0.2-0.1-0.2 h-3.3c-0.1,0-0.1,0.1-0.1,0.2v2.2c0,0.6,0.8,0.4,0.8,0.7c0,0-0.1,0.1-0.1,0.1c-0.1,0-0.8,0-1.2,0c-0.3,0-0.5,0-0.8,0 c-0.1,0-0.1,0-0.1-0.1c0-0.3,0.7,0,0.7-0.8L39.9,10.7z"></path> <path class="st0" d="M47.8,12.5c0,0.3,0,0.3,0.3,0.3h1c0.9,0,0.7-0.7,0.9-0.7c0.1,0,0.1,0.1,0.1,0.2c0,0.3,0,0.6,0,0.9 c0,0.2,0,0.5,0,0.7c0,0.1,0,0.1-0.1,0.1c-0.3,0,0-0.8-0.7-0.8h-1.3c-0.2,0-0.2,0.2-0.2,0.3v1.6c0,0.5-0.1,0.7,0.7,0.7 c2.1,0,2.4-0.9,2.5-0.9C51,14.9,51,15,51,15c0,0.3-0.2,0.6-0.4,0.9c-0.3,0.3-0.5,0.3-0.9,0.3c-0.7,0-1.4-0.1-2,0 c-0.4,0-0.7,0-1.1,0c-0.1,0-0.1,0-0.1-0.1c0-0.1,0.1-0.1,0.4-0.2c0.2-0.1,0.2-0.4,0.2-0.8V11c0-0.4,0-0.8-0.5-0.9 c-0.1,0-0.3,0-0.3-0.1c0-0.1,0.1-0.1,0.3-0.1c1.7,0,2.2,0,2.5,0c0.2,0,1,0,1.3,0c0.1,0,0.1,0.1,0.1,0.2c0,1-0.1,1.1-0.2,1.1 c-0.2,0-0.1-0.4-0.2-0.6c-0.2-0.3-1.2-0.2-1.5-0.2c-0.9,0-0.8,0-0.8,0.6V12.5z"></path> <path class="st0" d="M7.2,19.4c0.8,0,1.7,0.2,2.4,0.7c0.1,0,0.1-0.1,0.2-0.1c0.1,0,0.1,0.1,0.1,0.7c0,0.5,0.1,0.8-0.1,0.8 c-0.1,0-0.2-0.2-0.2-0.3c-0.4-0.9-1.3-1.5-2.3-1.5c-1.4-0.1-2.5,1-2.6,2.3c0,0.2,0,0.3,0,0.5c-0.2,1.5,0.9,2.9,2.5,3.1 c0,0,0.1,0,0.1,0c1,0,1.9-0.5,2.4-1.3c0-0.1,0.1-0.1,0.1-0.1c0,0,0.1,0,0.1,0.1l-0.2,0.9c0,0-0.6,0.7-2.6,0.7 c-1.6,0.1-3-1.2-3.1-2.8c0-0.1,0-0.2,0-0.3c-0.1-1.8,1.3-3.3,3.1-3.3C7.1,19.4,7.2,19.4,7.2,19.4"></path> <path class="st0" d="M15.1,23.7c-0.1-0.2-0.1-0.3-0.4-0.3h-2c-0.2,0-0.3,0-0.4,0.2l-0.6,1.2c0,0.1-0.1,0.2-0.1,0.3 c0,0.6,0.6,0.4,0.6,0.6c0,0.2-0.1,0.1-0.2,0.1c-0.2,0-0.5,0-0.7,0s-0.5,0-0.7,0c-0.1,0-0.1,0-0.1-0.1c0-0.2,0.4,0,0.7-0.5 l2.1-4.5c0.5-1.1,0.6-1.3,0.7-1.3c0.1,0,0.2,0.3,0.2,0.3l1.9,4.6c0.1,0.4,0.3,0.7,0.4,1c0.3,0.4,0.8,0.2,0.8,0.4 c0,0.1-0.1,0.1-0.1,0.1c-0.4,0-0.7,0-1.1,0c-0.2,0-0.5,0-0.7,0c-0.1,0-0.2,0-0.2-0.1c0-0.2,0.5-0.1,0.5-0.5 c-0.1-0.3-0.2-0.6-0.3-0.8L15.1,23.7z M12.7,22.8c-0.1,0.1,0,0.2,0.1,0.2h1.8c0.2,0,0.2-0.1,0.1-0.2l-0.9-2.1 c0-0.1-0.1-0.1-0.1,0L12.7,22.8z"></path> <path class="st0" d="M22.5,24.8c0.6,1,1.1,0.7,1.1,0.9c0,0.1-0.5,0.1-0.6,0.1c-0.7,0-1-0.5-1.3-1l-1-1.6 c-0.3-0.5-0.2-0.5-1.2-0.5c-0.3,0-0.2,0.2-0.2,0.2v1.9c0,0.8,0.9,0.5,0.9,0.8c0,0.1-0.1,0.1-0.2,0.1s-0.3,0-1,0c-0.3,0-0.7,0-1,0 c-0.1,0-0.1,0-0.1-0.1c0,0,0,0,0,0c0-0.2,0.7-0.1,0.7-0.8v-4.5c0-0.9-0.8-0.5-0.8-0.8c0-0.1,0.1-0.1,0.2-0.1c0.2,0,0.4,0,0.6,0 c0.5,0,1,0,1.5,0c0.1,0,2.1-0.2,2.1,1.5c0,0.7-0.5,1.3-1.1,1.5L22.5,24.8z M19.3,22.4c0,0.2,0.6,0.1,1,0.1c0.6,0,1.2-0.4,1.2-1.1 c0-0.1,0-0.1,0-0.2c0-1.1-0.8-1.5-1.7-1.5c-0.3,0-0.5,0-0.5,0.3L19.3,22.4z"></path> <path class="st0" d="M26,20.4c0-0.1,0-0.4-0.1-0.4h-1.5c-0.6,0-0.6,0.1-0.7,0.6c0,0.1,0,0.2-0.2,0.2c-0.1,0-0.1-0.1-0.1-0.1 l0.1-0.9c0-0.1,0-0.3,0.2-0.3c0.7,0,1.4,0,2.5,0c1.6,0,2.4,0,2.6,0c0.2,0,0.2,0.1,0.3,0.3l0,0.7c0,0.1,0,0.2-0.1,0.2 c-0.3,0,0.2-0.7-0.8-0.7h-1.3c-0.4,0-0.4,0-0.4,0.4V25c0,0.7,0.7,0.5,0.7,0.7c0,0,0,0.1-0.1,0.1c-0.2,0-0.5,0-0.7,0 c-0.4,0-0.8,0-1.2,0c-0.1,0-0.1,0-0.1-0.1c0-0.2,0.7-0.1,0.7-0.7V20.4z"></path> <path class="st0" d="M31.2,22.1c0,0.3,0,0.3,0.3,0.3h1c0.9,0,0.7-0.7,0.9-0.7c0.1,0,0.1,0.1,0.1,0.2c0,0.3,0,0.6,0,0.9 c0,0.2,0,0.5,0,0.7c0,0.1,0,0.1-0.1,0.1c-0.3,0,0-0.8-0.7-0.8h-1.3c-0.2,0-0.2,0.2-0.2,0.3v1.6c0,0.5-0.1,0.7,0.7,0.7 c2.1,0,2.4-0.9,2.5-0.9c0.1,0,0.1,0.1,0.1,0.1c0,0.3-0.2,0.6-0.4,0.9c-0.3,0.3-0.5,0.3-0.9,0.3c-0.7,0-1.4-0.1-2,0 c-0.4,0-0.7,0-1.1,0c-0.1,0-0.1,0-0.1-0.1c0-0.1,0.1-0.1,0.4-0.2c0.2-0.1,0.2-0.4,0.2-0.8v-4.1c0-0.4,0-0.8-0.5-0.9 c-0.1,0-0.3,0-0.3-0.1c0-0.1,0.1-0.1,0.3-0.1c1.7,0,2.2,0,2.5,0c0.2,0,1,0,1.3,0c0.1,0,0.1,0.1,0.1,0.2c0,1-0.1,1.1-0.2,1.1 c-0.2,0-0.1-0.4-0.2-0.6c-0.2-0.3-1.2-0.2-1.5-0.2c-0.9,0-0.8,0-0.8,0.6L31.2,22.1z"></path> <path class="st0" d="M39.7,24.8c0.6,1,1.1,0.7,1.1,0.9c0,0.1-0.5,0.1-0.6,0.1c-0.7,0-1-0.5-1.3-1l-1-1.6 c-0.3-0.5-0.2-0.5-1.2-0.5c-0.3,0-0.2,0.2-0.2,0.2v1.9c0,0.8,0.9,0.5,0.9,0.8c0,0.1-0.1,0.1-0.2,0.1c-0.1,0-0.3,0-1,0 c-0.3,0-0.7,0-1,0c-0.1,0-0.1,0-0.1-0.1c0,0,0,0,0,0c0-0.2,0.7-0.1,0.7-0.8v-4.5c0-0.9-0.8-0.5-0.8-0.8c0-0.1,0.1-0.1,0.2-0.1 c0.2,0,0.4,0,0.6,0c0.5,0,1,0,1.5,0c0.1,0,2.1-0.2,2.1,1.5c0,0.7-0.5,1.3-1.1,1.5L39.7,24.8z M36.4,22.4c0,0.2,0.6,0.1,1,0.1 c0.6,0,1.2-0.4,1.2-1.1c0-0.1,0-0.1,0-0.2c0-1.1-0.8-1.5-1.7-1.5c-0.3,0-0.5,0-0.5,0.3L36.4,22.4z"></path> <path class="st0" d="M47,19.4c0.8,0,1.7,0.2,2.4,0.7c0.1,0,0.1-0.1,0.2-0.1c0.1,0,0.1,0.1,0.1,0.7c0,0.5,0.1,0.8-0.1,0.8 c-0.1,0-0.2-0.2-0.2-0.3c-0.4-0.9-1.3-1.5-2.3-1.5c-1.4-0.1-2.5,1-2.6,2.3c0,0.2,0,0.3,0,0.5c-0.2,1.5,0.9,2.9,2.5,3.1 c0,0,0.1,0,0.1,0c1,0,1.9-0.5,2.4-1.3c0-0.1,0.1-0.1,0.1-0.1c0,0,0.1,0,0.1,0.1l-0.2,0.9c0,0-0.6,0.7-2.6,0.7 c-1.6,0.1-3-1.2-3.1-2.8c0-0.1,0-0.2,0-0.3c-0.1-1.8,1.3-3.3,3.1-3.3C46.9,19.4,46.9,19.4,47,19.4"></path> <path class="st0" d="M51.9,22.1c0,0.3,0,0.3,0.3,0.3h1c0.9,0,0.7-0.7,0.9-0.7c0.1,0,0.1,0.1,0.1,0.2c0,0.3,0,0.6,0,0.9 c0,0.2,0,0.5,0,0.7c0,0.1,0,0.1-0.1,0.1c-0.3,0,0-0.8-0.7-0.8H52c-0.2,0-0.2,0.2-0.2,0.3v1.6c0,0.5-0.1,0.7,0.7,0.7 c2.1,0,2.4-0.9,2.5-0.9c0.1,0,0.1,0.1,0.1,0.1c0,0.3-0.2,0.6-0.4,0.9c-0.3,0.3-0.5,0.3-0.9,0.3c-0.7,0-1.4-0.1-2,0 c-0.4,0-0.7,0-1.1,0c-0.1,0-0.1,0-0.1-0.1c0-0.1,0.1-0.1,0.4-0.2c0.2-0.1,0.2-0.4,0.2-0.8v-4.1c0-0.4,0-0.8-0.5-0.9 c-0.1,0-0.3,0-0.3-0.1c0-0.1,0.1-0.1,0.3-0.1c1.7,0,2.2,0,2.5,0c0.2,0,1,0,1.3,0c0.1,0,0.1,0.1,0.1,0.2c0,1-0.1,1.1-0.2,1.1 c-0.2,0-0.1-0.4-0.2-0.6c-0.2-0.3-1.2-0.3-1.5-0.3c-0.9,0-0.8,0-0.8,0.6L51.9,22.1z"></path> <path class="st0" d="M56.5,21.2c0-1.9-1.1-1.3-1.1-1.7c0-0.1,0.1-0.1,0.1-0.1c0.1,0,0.3,0,0.4,0c0.1,0,0.3,0,0.4,0 c0.1,0,0.2,0.1,0.2,0.2l4.3,4.7c0.1,0.1,0.1,0.1,0.1,0.1s0,0,0-0.1v-3.7c0-1.2-1-0.8-1-1.1c0,0,0-0.1,0.1-0.1c0,0,0,0,0,0 c0.3,0,0.5,0,0.8,0c0.3,0,0.7,0,0.9,0c0,0,0.1,0,0.1,0.1c0,0,0,0,0,0c0,0.2-0.5,0.1-0.5,0.7v5.2c0,0.3,0,0.4-0.1,0.4 s-0.2,0-0.3-0.2l-3.8-4.3c0,0-0.1-0.2-0.2-0.2c0,0-0.1,0-0.1,0.2v3.6c0,0.8,0.8,0.5,0.8,0.7c0,0,0,0.1-0.1,0.1 c-0.2,0-0.5,0-0.9,0c-0.3,0-0.8,0-0.8,0c-0.1,0-0.1-0.1-0.1-0.1c0-0.3,0.8,0.1,0.8-1.2L56.5,21.2z"></path> <path class="st0" d="M65.3,20.4c0-0.1,0-0.4-0.1-0.4h-1.5c-0.6,0-0.6,0.1-0.7,0.6c0,0.1,0,0.2-0.2,0.2c-0.1,0-0.1-0.1-0.1-0.1 l0.1-0.9c0-0.1,0-0.3,0.2-0.3c0.7,0,1.4,0,2.5,0c1.6,0,2.4,0,2.6,0c0.2,0,0.2,0.1,0.3,0.3l0,0.7c0,0.1,0,0.2-0.1,0.2 c-0.3,0,0.2-0.7-0.8-0.7h-1.3c-0.4,0-0.4,0-0.4,0.4V25c0,0.7,0.7,0.5,0.7,0.7c0,0,0,0.1-0.1,0.1c-0.2,0-0.5,0-0.7,0 c-0.4,0-0.8,0-1.2,0c-0.1,0-0.1,0-0.1-0.1c0-0.2,0.7-0.1,0.7-0.7L65.3,20.4z"></path> <path class="st0" d="M70.5,22.1c0,0.3,0,0.3,0.3,0.3h1c0.9,0,0.7-0.7,0.9-0.7c0.1,0,0.1,0.1,0.1,0.2c0,0.3,0,0.6,0,0.9 c0,0.2,0,0.5,0,0.7c0,0.1,0,0.1-0.1,0.1c-0.3,0,0-0.8-0.7-0.8h-1.3c-0.2,0-0.2,0.2-0.2,0.3v1.6c0,0.5-0.1,0.7,0.7,0.7 c2.1,0,2.4-0.9,2.5-0.9c0.1,0,0.1,0.1,0.1,0.1c0,0.3-0.2,0.6-0.5,0.9c-0.3,0.3-0.5,0.3-0.9,0.3c-0.7,0-1.4-0.1-2,0 c-0.4,0-0.7,0-1.1,0c-0.1,0-0.1,0-0.1-0.1c0-0.1,0.1-0.1,0.4-0.2c0.2-0.1,0.2-0.4,0.2-0.8v-4.1c0-0.4,0-0.8-0.5-0.9 c-0.1,0-0.3,0-0.3-0.1c0-0.1,0.1-0.1,0.3-0.1c1.7,0,2.2,0,2.5,0c0.2,0,1,0,1.3,0c0.1,0,0.1,0.1,0.1,0.2c0,1-0.1,1.1-0.2,1.1 c-0.2,0-0.1-0.4-0.2-0.6c-0.2-0.3-1.2-0.2-1.5-0.2c-0.9,0-0.8,0-0.8,0.6V22.1z"></path> <path class="st0" d="M78.9,24.8c0.6,1,1.1,0.7,1.1,0.9c0,0.1-0.5,0.1-0.6,0.1c-0.7,0-1-0.5-1.3-1l-1-1.6 c-0.3-0.5-0.2-0.5-1.2-0.5c-0.3,0-0.2,0.2-0.2,0.2v1.9c0,0.8,0.9,0.5,0.9,0.8c0,0.1-0.1,0.1-0.2,0.1s-0.3,0-1,0c-0.3,0-0.7,0-1,0 c-0.1,0-0.1,0-0.1-0.1c0,0,0,0,0,0c0-0.2,0.7-0.1,0.7-0.8v-4.5c0-0.9-0.8-0.5-0.8-0.8c0-0.1,0.1-0.1,0.2-0.1c0.2,0,0.4,0,0.6,0 c0.5,0,1,0,1.5,0c0.1,0,2.1-0.2,2.1,1.5c0,0.7-0.5,1.3-1.1,1.5L78.9,24.8z M75.7,22.4c0,0.2,0.6,0.1,1,0.1c0.6,0,1.2-0.4,1.2-1.1 c0-0.1,0-0.1,0-0.2c0-1.1-0.8-1.5-1.7-1.5c-0.3,0-0.5,0-0.5,0.3L75.7,22.4z"></path> </g> </g> </g> </svg>