<?xml version="1.0" encoding="UTF-8"?> <svg xmlns:xlink="http://www.w3.org/1999/xlink" xmlns="http://www.w3.org/2000/svg" width="60" height="96" viewBox="0 0 60 96" fill="none"><g opacity="0.15" fill="none"><path d="M53.875 10.4865C53.7115 7.10822 51.1352 3.56634 49.0205 1.46924C48.3361 0.790559 47.3109 1.30549 47.3586 2.26817C47.5202 5.53059 47.9531 8.96937 48.0966 9.68671C48.2743 10.5754 48.1854 10.0422 48.5409 11.7307C48.9129 13.4978 50.1712 15.5903 51.4087 17.4129C52.0209 18.3144 53.4696 17.972 53.6046 16.8907C53.8186 15.175 53.9954 12.9752 53.875 10.4865Z" fill="#FFFCFA"></path><path d="M58.142 22.5734C58.4938 20.1255 57.8162 16.2045 57.1644 14.4863C54.4098 18.3966 53.5211 19.4119 53.5211 22.2179C53.5211 23.9064 52.8104 28.972 53.5211 28.972C54.4335 28.972 57.6523 25.9807 58.142 22.5734Z" fill="#FFFCFA"></path><path d="M59.007 33.1486C58.0539 35.3703 55.7004 36.9052 53.3194 37.3254C53.3194 37.3254 53.6503 33.504 54.4747 31.2823C55.299 29.0606 56.288 27.7743 58.5626 26.3945C59.675 28.5823 59.2393 32.5265 59.007 33.1486Z" fill="#FFFCFA"></path><path d="M57.5984 43.6359C56.6453 45.8576 54.2918 47.3925 51.9108 47.8127C51.9108 47.8127 52.2417 43.9914 53.0661 41.7696C53.8904 39.5479 56.1397 37.9061 58.4143 36.5264C59.5267 38.7142 57.8306 43.0138 57.5984 43.6359Z" fill="#FFFCFA"></path><path d="M55.9258 55.3665C54.4451 57.2775 49.2711 59.0238 46.8609 58.8324C46.8609 58.8324 49.274 54.0002 51.6595 51.7228C54.045 49.4455 55.5697 48.6124 58.2288 48.2914C58.7558 50.6885 56.3069 54.8227 55.9258 55.3665Z" fill="#FFFCFA"></path><path d="M51.0614 66.8494C48.948 68.9616 42.9568 68.8864 40.5466 68.6949C40.5466 68.6949 42.9463 65.6735 45.7012 63.5406C48.4561 61.4078 50.7054 60.0954 53.3644 59.7744C53.8914 62.1715 52.1889 65.7226 51.0614 66.8494Z" fill="#FFFCFA"></path><path d="M42.5924 77.138C39.6594 79.0932 34.9609 77.3293 32.5506 77.1378C32.5506 77.1378 33.4393 75.627 36.1942 73.4942C38.9492 71.3613 44.5462 71.9258 47.2053 71.6048C47.7323 74.0019 43.9187 76.2538 42.5924 77.138Z" fill="#FFFCFA"></path><path d="M30.6776 85.4027C26.5895 85.7583 23.6569 84.2475 22.4127 83.181C22.4127 83.181 24.6344 81.7744 26.7672 81.1523C28.9 80.5303 35.2987 80.6039 37.9141 81.1523C37.0761 83.7143 32.2656 85.2646 30.6776 85.4027Z" fill="#FFFCFA"></path><path d="M21.3441 91.1803C16.9896 91.0914 13.2573 88.3366 12.013 87.27C12.013 87.27 12.191 86.5589 18.0562 86.2035C23.9213 85.8482 26.8159 87.4307 29.4313 87.9792C28.5933 90.5411 22.9379 91.2128 21.3441 91.1803Z" fill="#FFFCFA"></path><path d="M7.75873 93.8444C3.40418 93.7556 1.44881 91.5338 1.44881 89.845C5.42139 88.0292 12.5847 89.183 16.0942 91.1735C15.2562 93.7354 9.35249 93.8769 7.75873 93.8444Z" fill="#FFFCFA"></path><path d="M47.9144 22.173C46.0972 20.1062 45.8758 16.5467 45.9923 15.0253C46.8912 14.8837 49.49 16.7193 51.2344 19.245C52.3751 20.8966 52.9527 24.5843 52.8944 26.3928C51.9916 25.8474 49.7317 24.2399 47.9144 22.173Z" fill="#FFFCFA"></path><path d="M47.7399 31.9458C45.9227 29.879 46.6533 25.9574 46.7698 24.4359C47.6686 24.2943 49.9132 25.9982 51.6576 28.5239C52.7982 30.1754 52.9581 34.3581 52.8999 36.1666C51.9971 35.6212 49.5572 34.0127 47.7399 31.9458Z" fill="#FFFCFA"></path><path d="M51.2064 38.3933C52.347 40.0449 52.2593 45.3633 51.6175 46.0022C47.7443 43.6623 45.1212 38.886 46.6576 34.3944C47.5565 34.2528 49.462 35.8677 51.2064 38.3933Z" fill="#FFFCFA"></path><path d="M45.1701 52.9673C44.067 50.4459 44.7257 44.2582 46.2377 43.0139C47.1366 42.8723 48.4581 45.6801 49.0801 48.7016C49.4848 50.6676 48.7248 54.567 47.7807 56.271C46.8778 55.7256 45.7922 54.3892 45.1701 52.9673Z" fill="#FFFCFA"></path><path d="M39.1171 61.3201C39.1171 58.568 40.6038 53.2332 42.1158 51.989C43.0147 51.8474 44.4498 55.0068 44.4492 59.3646C44.4488 62.6532 42.3958 65.5651 40.6279 67.0077C39.7251 66.4623 39.1171 63.0086 39.1171 61.3201Z" fill="#FFFCFA"></path><path d="M32.1972 69.9387C32.1972 67.1865 34.5966 61.496 36.5519 60.5191C37.5293 60.1631 38.063 62.8258 38.0625 67.1836C38.0621 70.4721 33.6101 75.2637 32.997 75.1819C32.384 75.1002 32.1972 71.6272 32.1972 69.9387Z" fill="#FFFCFA"></path><path d="M24.1912 75.4514C25.0633 72.8411 27.2118 70.8294 29.1671 69.8525C30.1445 69.4966 30.0569 70.2937 30.0564 74.6516C30.0559 77.9401 24.8133 81.4353 23.9246 81.3168C23.0359 81.1983 23.6568 77.0511 24.1912 75.4514Z" fill="#FFFCFA"></path><path d="M14.8593 81.1378C15.7314 78.5275 18.0587 75.9836 21.6135 75.6284C22.8574 75.5041 21.8801 78.8271 21.6133 80.0713C20.9238 83.2868 14.7704 86.144 13.8817 86.0256C12.993 85.9071 14.3248 82.7374 14.8593 81.1378Z" fill="#FFFCFA"></path><path d="M2.60576 85.4025C4.28142 83.2193 7.93357 80.694 11.4884 80.3388C12.7322 80.2145 11.3107 84.1585 10.2441 85.403C8.10414 87.8999 2.33489 88.898 1.44621 88.7796C0.557523 88.6611 1.44621 86.9133 2.60576 85.4025Z" fill="#FFFCFA"></path></g></svg> 